IKResults C01
version=1
nRows=26
nColumns=24
inDegrees=yes

Units are S.I. units (second, meters, Newtons, ...)
If the header above contains a line with 'inDegrees', this indicates whether rotational values are in degrees (yes) or radians (no).

endheader
time	pelvis_tilt	pelvis_list	pelvis_rotation	pelvis_tx	pelvis_ty	pelvis_tz	hip_flexion_r	hip_adduction_r	hip_rotation_r	knee_angle_r	ankle_angle_r	subtalar_angle_r	mtp_angle_r	hip_flexion_l	hip_adduction_l	hip_rotation_l	knee_angle_l	ankle_angle_l	subtalar_angle_l	mtp_angle_l	lumbar_extension	lumbar_bending	lumbar_rotation
      7.94000000	      5.57879333	      4.76981933	    -89.99246651	     -0.19112834	      0.93650920	     -3.45378704	      8.06005620	     -5.62555893	     -0.84511084	    -61.56351048	    -13.54592047	     -4.19057859	      0.00000000	     29.06925145	      8.24057739	      1.58685959	    -23.62440384	      1.86087384	     -5.05004441	      0.00000000	    -10.41929338	    -10.90813148	      6.11992505
      7.95000000	      5.41704832	      4.62547812	    -90.18437122	     -0.19061805	      0.93897528	     -3.44037288	     10.35439462	     -5.52415899	     -0.56650676	    -64.53743550	    -14.00762957	     -8.14429615	      0.00000000	     27.85878059	      8.06495350	      1.28255317	    -23.50721468	      3.02616088	     -4.44259632	      0.00000000	    -10.46549074	    -10.57992675	      5.93724732
      7.96000000	      5.18158331	      4.49196057	    -90.39729343	     -0.19014583	      0.94146177	     -3.42713164	     12.62894292	     -5.30169799	     -0.31343929	    -67.16937607	    -12.22445258	    -10.58825089	      0.00000000	     26.63475370	      7.76263685	      0.80507884	    -23.23023744	      4.00693272	     -4.34184039	      0.00000000	    -10.53745222	    -10.17763134	      5.78503659
      7.97000000	      4.95372325	      4.37945603	    -90.59308714	     -0.18968654	      0.94386921	     -3.41388544	     14.94021897	     -5.08565004	     -0.17767306	    -69.54352067	    -12.18453253	    -15.63095345	      0.00000000	     25.42208673	      7.50765705	      0.50304607	    -23.03686879	      5.28920443	     -3.00908684	      0.00000000	    -10.64260560	     -9.72322210	      5.55479092
      7.98000000	      4.79455412	      4.23699287	    -90.73275948	     -0.18912036	      0.94633292	     -3.40043328	     17.18213237	     -5.03414511	     -0.25808398	    -71.57486819	    -10.20059040	    -17.70560519	      0.00000000	     24.18827730	      7.31674682	      0.11854911	    -22.78892861	      6.06773228	     -2.93663160	      0.00000000	    -10.68105303	     -9.39707577	      5.34608328
      7.99000000	      4.64733803	      4.08789794	    -90.85742069	     -0.18875485	      0.94874681	     -3.38703302	     19.36054694	     -4.94033269	     -0.29151950	    -73.22612949	    -10.17632871	    -21.60375138	      0.00000000	     22.91466690	      7.19403948	      0.09217204	    -22.52872554	      7.23156252	     -1.98800972	      0.00000000	    -10.85203329	     -9.02177493	      4.84185068
      8.00000000	      4.48382674	      3.88913141	    -90.84591544	     -0.18811724	      0.95116132	     -3.37347570	     21.35399847	     -4.92711662	     -0.49102124	    -74.44793494	     -8.92976470	    -23.05921418	      0.00000000	     21.58229553	      7.13430003	      0.31965654	    -22.32034883	      8.00154426	     -2.19368034	      0.00000000	    -10.92340094	     -8.67036357	      4.62763970
      8.01000000	      4.33709074	      3.52771732	    -90.73093095	     -0.18730880	      0.95383245	     -3.35880635	     22.87739482	     -5.01316292	     -0.76296550	    -75.07182432	     -8.20609047	    -24.57586439	      0.00000000	     19.91772635	      7.14010848	      0.66331511	    -21.90793300	      8.82106038	     -2.29240189	      0.00000000	    -11.15996154	     -8.33510353	      4.10927363
      8.02000000	      4.15871222	      3.35211034	    -90.43371089	     -0.18639312	      0.95571210	     -3.34541344	     24.69328056	     -5.11229914	     -1.16607292	    -75.56576128	     -8.05417547	    -26.03305103	      0.00000000	     18.61453965	      7.17367338	      1.32209705	    -21.63443660	      9.62139915	     -2.43849091	      0.00000000	    -11.27850175	     -7.91314789	      3.37850133
      8.03000000	      3.92779361	      3.11646283	    -90.01625473	     -0.18518098	      0.95744096	     -3.33167052	     26.30581698	     -5.27306566	     -1.67278790	    -75.65054407	     -8.25407228	    -27.19335139	      0.00000000	     17.27925441	      7.12366281	      1.74627095	    -21.45678359	     10.42041355	     -2.25607307	      0.00000000	    -11.50663994	     -7.42616133	      2.58447889
      8.04000000	      3.68390913	      2.88201890	    -89.51623330	     -0.18397346	      0.95893634	     -3.31796496	     27.77205990	     -5.45351030	     -2.24687871	    -75.44254146	     -8.37220647	    -27.77961937	      0.00000000	     15.87259674	      7.12588308	      2.64558198	    -21.13019003	     11.03164362	     -2.36418886	      0.00000000	    -11.68887093	     -6.91780404	      1.98132497
      8.05000000	      3.42770883	      2.63383904	    -88.96144551	     -0.18270612	      0.96010530	     -3.30428856	     29.11808779	     -5.66878671	     -2.83026708	    -74.95065855	     -8.33569580	    -27.83386961	      0.00000000	     14.48312264	      7.06568424	      3.40015504	    -20.85880430	     11.23292272	     -2.39450939	      0.00000000	    -11.86256921	     -6.34653689	      1.79339013
      8.06000000	      3.18198917	      2.36514276	    -88.44430615	     -0.18152776	      0.96095145	     -3.29048912	     30.34345187	     -5.84973302	     -3.33749485	    -74.19296975	     -7.89014197	    -27.84000123	      0.00000000	     13.04611030	      6.99266214	      4.07765015	    -20.52408281	     12.47752219	     -2.66961016	      0.00000000	    -12.15633422	     -5.90554841	      0.65882161
      8.07000000	      2.90633089	      2.09734996	    -87.84813361	     -0.18043978	      0.96158094	     -3.27691314	     31.44363712	     -6.06222306	     -3.95206495	    -73.11114089	     -7.69602291	    -27.69328657	      0.00000000	     11.67082910	      6.81637840	      4.67050474	    -20.19392197	     12.74607658	     -2.64223994	      0.00000000	    -12.38236183	     -5.27058701	      0.36264973
      8.08000000	      2.73380378	      1.82292999	    -87.28492344	     -0.17936219	      0.96188000	     -3.26336770	     32.46254903	     -6.33854416	     -4.43500142	    -71.78364650	     -6.52457196	    -26.77357632	      0.00000000	     10.27149657	      6.73523272	      5.35480843	    -19.92630393	     14.31943687	     -2.65065211	      0.00000000	    -12.66463744	     -4.99072111	     -1.14170840
      8.09000000	      2.58714299	      1.58936128	    -86.74653050	     -0.17841367	      0.96194745	     -3.24986790	     33.39745415	     -6.65035332	     -4.90787694	    -70.12979690	     -4.65946618	    -23.98068955	      0.00000000	      8.85297993	      6.67795970	      6.28826723	    -19.53957114	     15.32942883	     -2.50986180	      0.00000000	    -12.73122021	     -4.51697677	     -2.10960873
      8.10000000	      2.47475553	      1.33399907	    -86.24589683	     -0.17758185	      0.96176859	     -3.23630069	     34.19997291	     -6.91042478	     -5.23609308	    -68.22953537	     -2.54265292	    -22.32256669	      0.00000000	      7.47473918	      6.57254771	      6.92780454	    -19.28644140	     15.95299279	     -2.35674972	      0.00000000	    -13.00688826	     -4.14843161	     -2.55988012
      8.11000000	      2.41906916	      1.09386143	    -85.83389390	     -0.17701650	      0.96141043	     -3.22273228	     34.94521347	     -7.14637180	     -5.49405752	    -66.03365725	     -2.22634381	    -20.51539333	      0.00000000	      6.12331773	      6.44512510	      7.30868075	    -19.00389481	     16.68280482	     -2.02394664	      0.00000000	    -13.21054332	     -3.90877890	     -3.03977041
      8.12000000	      2.37112624	      0.94268187	    -85.31175648	     -0.17650749	      0.96068625	     -3.20935938	     35.62908352	     -7.43841672	     -5.81206906	    -63.55597026	     -1.27861656	    -19.80007895	      0.00000000	      4.90224303	      6.36199400	      8.01868008	    -18.86364679	     17.59434087	     -2.10266357	      0.00000000	    -13.47759468	     -3.80669457	     -3.78074824
      8.13000000	      2.36714634	      0.78407729	    -84.90808457	     -0.17624361	      0.95980050	     -3.19545795	     36.18046613	     -7.66371584	     -5.96809802	    -60.87084387	     -0.45287114	    -18.06853179	      0.00000000	      3.61061573	      6.23674398	      8.39776028	    -18.52284657	     18.45945953	     -1.70485438	      0.00000000	    -13.58413146	     -3.66122561	     -4.55909468
      8.14000000	      2.38578822	      0.61318244	    -84.55802561	     -0.17618894	      0.95877524	     -3.18131787	     36.60075685	     -7.82360745	     -6.07352142	    -57.87257021	      0.26092828	    -17.07599902	      0.00000000	      2.24872443	      6.15611968	      9.01097085	    -18.27154484	     19.22893496	     -1.80230755	      0.00000000	    -13.67610347	     -3.57808434	     -4.88014875
      8.15000000	      2.43083263	      0.51076442	    -84.17246885	     -0.17619668	      0.95746303	     -3.16709127	     36.96197927	     -8.00586674	     -6.13948051	    -54.70803630	      0.77463366	    -15.92837678	      0.00000000	      0.95670450	      6.06170102	      9.51758249	    -17.85692202	     19.75402353	     -1.73067607	      0.00000000	    -13.60039469	     -3.46172909	     -5.52561757
      8.16000000	      2.51161496	      0.41333946	    -83.82482665	     -0.17625526	      0.95588519	     -3.15267293	     37.27474853	     -8.22020611	     -6.18731589	    -51.46317526	      0.83468868	    -15.68536546	      0.00000000	     -0.35215554	      5.99658514	     10.03090782	    -17.58176883	     20.07802566	     -1.77033214	      0.00000000	    -13.78543895	     -3.48540226	     -5.69060855
      8.17000000	      2.55189045	      0.42484733	    -83.50364422	     -0.17649579	      0.95405300	     -3.13823469	     37.52839972	     -8.30996984	     -6.09131118	    -47.93458580	      1.12611346	    -14.71970444	      0.00000000	     -1.52737336	      5.84491803	     10.32921157	    -17.22983167	     21.24521773	     -1.77906097	      0.00000000	    -13.57869971	     -3.52032134	     -6.46584669
      8.18000000	      2.60383030	      0.50019069	    -83.07474339	     -0.17645361	      0.95201840	     -3.12390141	     37.74376055	     -8.50928845	     -6.08572321	    -44.31422871	      2.06907552	    -13.14281191	      0.00000000	     -2.62874383	      5.68796915	     10.64424147	    -16.86665616	     22.02258412	     -1.20007959	      0.00000000	    -13.46021560	     -3.49282717	     -7.31943010
      8.19000000	      2.66354061	      0.59906826	    -82.74337563	     -0.17665424	      0.94968855	     -3.10922191	     37.88398116	     -8.63926718	     -5.91333791	    -40.59847068	      2.10125897	    -13.08449304	      0.00000000	     -3.73602853	      5.51706191	     10.77067830	    -16.49385130	     22.06206034	     -1.17951681	      0.00000000	    -13.28010064	     -3.56794565	     -7.32361433
